<?xml version="1.0" encoding="utf-8"?>
<!-- Generator: Adobe Illustrator 19.0.1, SVG Export Plug-In . SVG Version: 6.00 Build 0)  -->
<svg version="1.1" id="Layer_1" xmlns="http://www.w3.org/2000/svg" xmlns:xlink="http://www.w3.org/1999/xlink" x="0px" y="0px"
	 viewBox="0 0 149.8 28.4" style="enable-background:new 0 0 149.8 28.4;" xml:space="preserve">
<style type="text/css">
	.st0{fill:#FFFFFF;}
</style>
<g>
	<path class="st0" d="M144.9,12.9h-1v3.3c0,0.1-0.1,0.1-0.1,0.1h-0.6c-0.1,0-0.1,0-0.1-0.1v-3.3h-1c-0.1,0-0.1,0-0.1-0.1v-0.4
		c0-0.1,0.1-0.1,0.1-0.1h2.8c0.1,0,0.1,0,0.1,0.1v0.4C145.1,12.8,145,12.9,144.9,12.9z"/>
	<path class="st0" d="M149.7,16.2h-0.6c-0.1,0-0.1-0.1-0.1-0.1v-2.5c0-0.5-0.1-0.6-0.4-0.6h-0.1c-0.4,0-0.4,0.2-0.4,0.6v2.5
		c0,0.1,0,0.1-0.1,0.1h-0.6c-0.1,0-0.1-0.1-0.1-0.1v-2.5c0-0.3,0-0.6-0.4-0.6h-0.1c-0.3,0-0.4,0.1-0.4,0.6v2.5c0,0.1,0,0.1-0.1,0.1
		h-0.6c-0.1,0-0.1-0.1-0.1-0.1v-2.5c0-0.9,0.5-1.3,1.2-1.3h0.1c0.3,0,0.6,0.1,0.8,0.3c0.2-0.2,0.5-0.3,0.8-0.3h0.1
		c0.8,0,1.2,0.5,1.2,1.3v2.5C149.8,16.2,149.8,16.2,149.7,16.2z"/>
</g>
<path class="st0" d="M13.6,0c0,0-0.2,0-0.2,0.2v6.7c0,1.3,0.6,1.9,2,1.9h1.5c0.1,0,0.2-0.1,0.2-0.2V7.7c0,0,0-0.1-0.2-0.1h-1
	c-0.6,0-0.9-0.1-0.9-0.7V2.7h1.9c0.1,0,0.2-0.1,0.2-0.2V1.7c0-0.1-0.1-0.2-0.2-0.2H15V0.2C15,0.1,14.9,0,14.8,0
	C14.8,0,13.6,0,13.6,0z M21.8,4.7v1c0,2.8,2.1,3.1,3,3.1l2.5,0c0.2,0,0.2,0,0.2-0.3v-1c0-0.1-0.1-0.1-0.2-0.1h-2.5
	c-1.3,0-1.5-0.8-1.5-1.6V5.7h4.4c0.1,0,0.2,0,0.2-0.2V4.7c0-2-1.2-3.2-3-3.2C23,1.5,21.8,2.7,21.8,4.7z M23.4,4.5
	c0-1,0.6-1.7,1.5-1.7c0.9,0,1.5,0.7,1.5,1.7v0.1h-2.9V4.5z M42.4,1.5c-0.7,0-1.3,0.2-1.7,0.5l-0.1,0l-0.1,0
	c-0.4-0.3-0.9-0.5-1.7-0.5h-0.3C36.9,1.5,36,2.4,36,4v4.6c0,0.1,0.1,0.2,0.2,0.2h1.2c0.1,0,0.2-0.1,0.2-0.2V4c0-1,0.4-1.1,1-1.1h0.3
	c0.9,0,0.9,0.6,0.9,1.1v4.6c0,0.1,0.1,0.2,0.2,0.2h1.2c0.1,0,0.2-0.1,0.2-0.2V4c0-0.6,0.1-1.1,0.9-1.1h0.3c0.6,0,1,0.2,1,1.1v4.6
	c0,0.1,0.1,0.2,0.2,0.2h1.1c0.1,0,0.2-0.1,0.2-0.2V4c0-1.6-0.8-2.4-2.4-2.4H42.4z M31.9,1.5c-2,0-2.9,1-2.9,3.1v1
	c0,2.1,1,3.1,2.9,3.1l2.9,0c0.1,0,0.2-0.1,0.2-0.2V3.9c0-1.6-0.8-2.4-2.4-2.4L31.9,1.5z M30.4,5.7v-1c0-1.2,0.5-1.9,1.5-1.9H32
	l0.4,0c0.5,0,0.9,0.1,1,0.8l0,3.9h-1.6C30.9,7.5,30.4,6.9,30.4,5.7z M18.5,1.5c-0.1,0-0.2,0.1-0.2,0.2v6.9c0,0.1,0.1,0.2,0.2,0.2
	h1.2c0.1,0,0.2-0.1,0.2-0.2V2.8l0.9,0l0.4,0c0.3,0,0.3-0.1,0.3-0.2v-1c0,0,0-0.1-0.3-0.1H18.5z M9.9,1.5c-1.6,0-2.5,0.7-2.5,1.9
	c0,0.6,0.1,1.1,0.9,1.7L10,6.2c0.4,0.3,0.6,0.4,0.6,0.7c0,0.4-0.5,0.7-1.3,0.7h-2c-0.1,0-0.2,0.1-0.2,0.1v0.8c0,0.1,0.1,0.2,0.1,0.2
	c0,0,0,0,0,0h2.3c1.6,0,2.5-0.7,2.5-1.9c0-0.6-0.1-1.1-0.9-1.7c0,0-1.8-1.1-1.8-1.1C9.2,3.9,9,3.7,9,3.4C9,3,9.4,2.7,10.2,2.7h2
	c0.1,0,0.2-0.1,0.2-0.1V1.7c0-0.1-0.1-0.2-0.1-0.2c0,0,0,0,0,0H9.9z M5,1.5c-0.1,0-0.1,0-0.3,0.2L3.4,3.9L2,1.8
	C1.9,1.6,1.9,1.5,1.8,1.5H0.2c-0.1,0-0.1,0-0.1,0.1l0,0.1L2.4,5L0,8.6l0,0.1c0,0,0,0.1,0.1,0.1h1.4c0.1,0,0.1,0,0.3-0.2l1.5-2.4
	l1.6,2.4C4.9,8.8,4.9,8.8,5,8.8h1.6c0.1,0,0.1,0,0.1-0.1l0-0.1L4.2,5l2.2-3.4c0,0,0-0.1,0-0.1c0,0,0,0,0,0H5z"/>
<path class="st0" d="M17.2,28.4h-2.3c-0.3,0-0.5-0.3-0.5-0.6V17.5c0-2-0.6-2.3-1.7-2.3h-0.6c-1.4,0-1.6,0.9-1.6,2.3v10.3
	c0,0.3-0.2,0.6-0.5,0.6H7.7c-0.3,0-0.5-0.3-0.5-0.6V17.5c0-1.4-0.2-2.3-1.6-2.3H5c-1.1,0-1.7,0.4-1.7,2.3v10.3
	c0,0.3-0.2,0.6-0.5,0.6H0.5c-0.3,0-0.5-0.3-0.5-0.6V17.5C0,13.9,1.9,12,5,12h0.6c1.4,0,2.5,0.4,3.3,1.1c0.8-0.8,1.9-1.1,3.3-1.1h0.6
	c3.1,0,5,1.9,5,5.5v10.3C17.7,28.1,17.5,28.4,17.2,28.4"/>
<path class="st0" d="M29.8,28.3c-0.7,0.1-1.6,0.3-4.4,0.3c-3,0-5.3-0.8-5.3-4.4v-7.5c0-3.7,2.3-4.4,5.3-4.4c2.8,0,3.7,0.2,4.4,0.3
	c0.3,0,0.5,0.2,0.5,0.5v1.4c0,0.2-0.2,0.4-0.5,0.4h-4.7c-1.3,0-1.8,0.4-1.8,1.9V19h6.3c0.3,0,0.5,0.2,0.5,0.4V21
	c0,0.2-0.2,0.4-0.5,0.4h-6.3v2.8c0,1.4,0.5,1.9,1.8,1.9h4.7c0.3,0,0.5,0.2,0.5,0.4v1.4C30.3,28.2,30.1,28.3,29.8,28.3"/>
<path class="st0" d="M41.8,18.8c0-3.2-1.8-4.1-4.1-4.1c-0.9,0-1.5,0-1.9,0.1V26c0.5,0,1.1,0.1,1.9,0.1c2.3,0,4.1-0.8,4.1-4.1V18.8z
	 M37.7,28.6c-1.6,0-3.9-0.2-4.6-0.3c-0.4-0.1-0.6-0.2-0.6-0.7V13.2c0-0.4,0.2-0.6,0.6-0.7c0.7-0.1,2.9-0.3,4.6-0.3
	c4.6,0,7.3,2.3,7.3,6.6V22C45,26.3,42.3,28.6,37.7,28.6"/>
<path class="st0" d="M49.9,28.4h-2.3c-0.3,0-0.5-0.2-0.5-0.4V12.8c0-0.2,0.2-0.4,0.5-0.4h2.3c0.3,0,0.5,0.2,0.5,0.4V28
	C50.4,28.2,50.2,28.4,49.9,28.4"/>
<path class="st0" d="M62,16.9c0-1.5-0.5-2-2.1-2h-1.6c-1.6,0-2.1,0.5-2.1,2v2.9H62V16.9z M64.8,28.4h-2.3c-0.3,0-0.4-0.2-0.4-0.4
	v-5.7h-5.8V28c0,0.2-0.2,0.4-0.4,0.4h-2.3c-0.3,0-0.4-0.2-0.4-0.4V16.9c0-3.6,2.1-4.6,5.3-4.6h1.6c3.2,0,5.3,1,5.3,4.6V28
	C65.2,28.2,65,28.4,64.8,28.4"/>
<path class="st0" d="M86.1,28.4h-2.3c-0.3,0-0.5-0.3-0.5-0.6V17.5c0-2-0.6-2.3-1.7-2.3H81c-1.4,0-1.6,0.9-1.6,2.3v10.3
	c0,0.3-0.2,0.6-0.5,0.6h-2.3c-0.3,0-0.5-0.3-0.5-0.6V17.5c0-1.4-0.2-2.3-1.6-2.3h-0.6c-1.1,0-1.7,0.4-1.7,2.3v10.3
	c0,0.3-0.2,0.6-0.5,0.6h-2.3c-0.3,0-0.5-0.3-0.5-0.6V17.5c0-3.6,1.8-5.5,5-5.5h0.6c1.4,0,2.5,0.4,3.3,1.1c0.8-0.8,1.9-1.1,3.3-1.1
	h0.6c3.1,0,5,1.9,5,5.5v10.3C86.6,28.1,86.4,28.4,86.1,28.4"/>
<path class="st0" d="M98,16.9c0-1.5-0.5-2-2.1-2h-1.6c-1.6,0-2.1,0.5-2.1,2v2.9H98V16.9z M100.7,28.4h-2.3c-0.3,0-0.4-0.2-0.4-0.4
	v-5.7h-5.8V28c0,0.2-0.2,0.4-0.4,0.4h-2.3c-0.3,0-0.4-0.2-0.4-0.4V16.9c0-3.6,2.1-4.6,5.3-4.6h1.6c3.2,0,5.3,1,5.3,4.6V28
	C101.2,28.2,101,28.4,100.7,28.4"/>
<path class="st0" d="M115.4,28.4h-3c-0.3,0-0.4-0.1-0.5-0.2l-5.1-7.4V28c0,0.2-0.2,0.4-0.4,0.4h-2.2c-0.2,0-0.4-0.2-0.4-0.4V12.8
	c0-0.2,0.2-0.4,0.4-0.4h2.2c0.2,0,0.4,0.2,0.4,0.4v6.9l5.4-7.1c0.1-0.2,0.3-0.2,0.5-0.2h2.5c0.3,0,0.4,0.1,0.4,0.3
	c0,0.1-0.1,0.2-0.2,0.3l-5.7,7.1l5.7,7.8c0.1,0.1,0.1,0.2,0.1,0.3C115.8,28.4,115.6,28.4,115.4,28.4"/>
<path class="st0" d="M126.5,28.3c-0.7,0.1-1.6,0.3-4.4,0.3c-3,0-5.3-0.8-5.3-4.4v-7.5c0-3.7,2.3-4.4,5.3-4.4c2.8,0,3.7,0.2,4.4,0.3
	c0.3,0,0.5,0.2,0.5,0.5v1.4c0,0.2-0.2,0.4-0.5,0.4h-4.7c-1.3,0-1.8,0.4-1.8,1.9V19h6.3c0.3,0,0.5,0.2,0.5,0.4V21
	c0,0.2-0.2,0.4-0.5,0.4h-6.3v2.8c0,1.4,0.5,1.9,1.8,1.9h4.7c0.3,0,0.5,0.2,0.5,0.4v1.4C126.9,28.2,126.8,28.3,126.5,28.3"/>
<path class="st0" d="M138,17.1c0-1.6-1.2-2.3-3.5-2.3c-0.5,0-1.6,0-2.1,0.1v4.9c0.4,0,1.7,0.1,2.1,0.1c2.4,0,3.5-0.6,3.5-2.5V17.1z
	 M141.5,28.4h-2.8c-0.3,0-0.3-0.2-0.5-0.4l-3.3-5.8h-0.3c-0.6,0-1.5-0.1-2.1-0.1V28c0,0.2-0.2,0.4-0.4,0.4h-2.3
	c-0.3,0-0.5-0.2-0.5-0.4V13.2c0-0.4,0.3-0.6,0.7-0.6c1.2-0.2,2.8-0.3,4.5-0.3c3.6,0,6.7,1.2,6.7,4.9v0.2c0,2.3-1.2,3.7-3.1,4.4
	l3.6,6.3c0,0.1,0,0.1,0,0.2C141.7,28.3,141.6,28.4,141.5,28.4"/>
</svg>
